# xmcd CD database file
# Copyright (C) 1993-1996 Ti Kan
#
# Track frame offsets:
#	150
#	53265
#	74135
#	95322
#	131737
#	152155
#	173905
#	204417
#	213722
#	225047
#
# Disc length: 3241 seconds
#
# Revision: 2
# Processed by: cddbd v1.4b41PL1 Copyright (c) Steve Scherf et al.
# Submitted via: CDValet v3.01 - Copyright (c) 1997 Greg Leichner
#
DISCID=840ca70a
DTITLE=Muddy Waters and The Rolling Stones - Sweet Home Chicago [CDTwo)
DYEAR=1900
DGENRE=
TTITLE0=Baby Please Don't Go
TTITLE1=Hoochie Coochie Man
TTITLE2=Long Distance Call
TTITLE3=Mannish Boy
TTITLE4=Champagne and Reefer
TTITLE5=Next Time You See Me
TTITLE6=Talking About My Woman
TTITLE7=I Want to Be Loved
TTITLE8=I Can't Be Satisfied
TTITLE9=I Just Want to Make Love to You
EXTD=
EXTT0=
EXTT1=
EXTT2=
EXTT3=
EXTT4=
EXTT5=
EXTT6=
EXTT7=
EXTT8=
EXTT9=
PLAYORDER=
